subject11_noload_free_trial03_ground_reaction																		
version=1																		
nRows=36																		
nColumns=19																		
inDegrees=no																		
endheader																		
time	ground_force_r_vx	ground_force_r_vy	ground_force_r_vz	ground_force_r_px	ground_force_r_py	ground_force_r_pz	ground_torque_r_x	ground_torque_r_y	ground_torque_r_z	ground_force_l_vx	ground_force_l_vy	ground_force_l_vz	ground_force_l_px	ground_force_l_py	ground_force_l_pz	ground_torque_l_x	ground_torque_l_y	ground_torque_l_z
0.5	-108.804179	895.605369	-41.363311	0.133052	0	-0.173735	0	2.763851	0	0	0	0	11.67413	0	-32.198612	0	0	0
0.5005	-108.390164	894.648853	-41.295555	0.133185	0	-0.173734	0	2.768881	0	0	0	0	11.627717	0	-32.054754	0	0	0
0.501	-107.976174	893.673479	-41.229398	0.133319	0	-0.173732	0	2.773939	0	0	0	0	11.581436	0	-31.91133	0	0	0
0.5015	-107.562224	892.679415	-41.164848	0.133454	0	-0.17373	0	2.779021	0	0	0	0	11.535287	0	-31.768338	0	0	0
0.502	-107.148327	891.666835	-41.101913	0.133589	0	-0.173727	0	2.784122	0	0	0	0	11.489269	0	-31.625779	0	0	0
0.5025	-106.734496	890.635921	-41.040601	0.133724	0	-0.173725	0	2.789235	0	0	0	0	11.443383	0	-31.483652	0	0	0
0.503	-106.320745	889.586864	-40.98092	0.13386	0	-0.173722	0	2.794356	0	0	0	0	11.397627	0	-31.341956	0	0	0
0.5035	-105.907088	888.519857	-40.922876	0.133997	0	-0.173718	0	2.799479	0	0	0	0	11.352003	0	-31.20069	0	0	0
0.504	-105.493541	887.435097	-40.866481	0.134134	0	-0.173714	0	2.8046	0	0	0	0	11.306509	0	-31.059854	0	0	0
0.5045	-105.080119	886.33278	-40.811744	0.134272	0	-0.17371	0	2.809718	0	0	0	0	11.261146	0	-30.919447	0	0	0
0.505	-104.666839	885.213104	-40.758676	0.13441	0	-0.173706	0	2.814829	0	0	0	0	11.215913	0	-30.779469	0	0	0
0.5055	-104.253719	884.076271	-40.707289	0.134549	0	-0.173701	0	2.81993	0	0	0	0	11.170811	0	-30.639918	0	0	0
0.506	-103.840775	882.922488	-40.65759	0.134688	0	-0.173696	0	2.825018	0	0	0	0	11.125838	0	-30.500794	0	0	0
0.5065	-103.428021	881.751968	-40.609588	0.134828	0	-0.17369	0	2.830088	0	0	0	0	11.080995	0	-30.362097	0	0	0
0.507	-103.015471	880.564931	-40.563288	0.134968	0	-0.173684	0	2.835137	0	0	0	0	11.036282	0	-30.223826	0	0	0
0.5075	-102.603136	879.361602	-40.518696	0.135109	0	-0.173678	0	2.840158	0	0	0	0	10.991698	0	-30.08598	0	0	0
0.508	-102.191028	878.142208	-40.475815	0.135251	0	-0.173672	0	2.845149	0	0	0	0	10.947243	0	-29.948558	0	0	0
0.5085	-101.779159	876.906982	-40.434649	0.135393	0	-0.173665	0	2.850106	0	0	0	0	10.902918	0	-29.81156	0	0	0
0.509	-101.36754	875.656159	-40.3952	0.135535	0	-0.173657	0	2.855025	0	0	0	0	10.858721	0	-29.674986	0	0	0
0.5095	-100.956182	874.389977	-40.357469	0.135678	0	-0.17365	0	2.859904	0	0	0	0	10.814653	0	-29.538834	0	0	0
0.51	-100.545097	873.10868	-40.321458	0.135821	0	-0.173642	0	2.86474	0	0	0	0	10.770713	0	-29.403104	0	0	0
0.5105	-100.134296	871.812516	-40.287165	0.135965	0	-0.173633	0	2.869532	0	0	0	0	10.726902	0	-29.267795	0	0	0
0.511	-99.723791	870.501738	-40.25459	0.13611	0	-0.173625	0	2.874279	0	0	0	0	10.683219	0	-29.132907	0	0	0
0.5115	-99.313592	869.176603	-40.22373	0.136254	0	-0.173615	0	2.87898	0	0	0	0	10.639663	0	-28.998439	0	0	0
0.512	-98.903712	867.837373	-40.194583	0.1364	0	-0.173606	0	2.883636	0	0	0	0	10.596236	0	-28.86439	0	0	0
0.5125	-98.494161	866.484312	-40.167143	0.136545	0	-0.173596	0	2.888248	0	0	0	0	10.552936	0	-28.730759	0	0	0
0.513	-98.08495	865.117685	-40.141405	0.136691	0	-0.173586	0	2.892816	0	0	0	0	10.509763	0	-28.597547	0	0	0
0.5135	-97.67609	863.73776	-40.117357	0.136838	0	-0.173575	0	2.897342	0	0	0	0	10.466717	0	-28.464752	0	0	0
0.514	-97.267588	862.34481	-40.094987	0.136985	0	-0.173564	0	2.901826	0	0	0	0	10.423799	0	-28.332373	0	0	0
0.5145	-96.859454	860.939112	-40.074281	0.137133	0	-0.173553	0	2.906266	0	0	0	0	10.381007	0	-28.200411	0	0	0
0.515	-96.451695	859.520951	-40.055222	0.137281	0	-0.173541	0	2.910664	0	0	0	0	10.338342	0	-28.068864	0	0	0
0.5155	-96.044317	858.090611	-40.037791	0.137429	0	-0.173528	0	2.915021	0	0	0	0	10.295803	0	-27.937731	0	0	0
0.516	-95.637328	856.648383	-40.021968	0.137578	0	-0.173516	0	2.919335	0	0	0	0	10.25339	0	-27.807013	0	0	0
0.5165	-95.230733	855.194554	-40.007731	0.137728	0	-0.173503	0	2.923608	0	0	0	0	10.211104	0	-27.676708	0	0	0
0.517	-94.824539	853.729415	-39.995053	0.137878	0	-0.17349	0	2.927839	0	0	0	0	10.168943	0	-27.546815	0	0	0
0.5175	-94.418751	852.253259	-39.983908	0.138028	0	-0.173476	0	2.932028	0	0	0	0	10.126908	0	-27.417335	0	0	0
